<svg xmlns="http://www.w3.org/2000/svg" width="104" height="44" stroke="none" stroke-linecap="round" stroke-linejoin="round" fill="#000" fill-rule="nonzero"><path d="M103.2718 10.36l-7.46 10.37 7.84 12.17h-8.1l-3.76-6.64-4.76 6.64h-8.2l9.03-12.2-6.92-10.34h8.27l2.67 4.78 3.1-4.78zm-32.38 0h6.77zm3.4 24.44c2.0156.0237 3.7344 1.4663 4.1073 3.4472s-.7038 3.9498-2.5728 4.7047-4.011.0861-5.1185-1.5981-.8727-3.9159.561-5.3328a4.23 4.23 0 0 1 3.023-1.221zm-11.78-10.87l6.9 9h-8.52l-4.3-6.73v6.73h-6.76V10.36h8.86c2.2565-.1363 4.474.6341 6.16 2.14a6.83 6.83 0 0 1 1.88 5c.1819 2.8385-1.5342 5.4555-4.21 6.42zm-1.84-6a2.34 2.34 0 0 0-.6-1.73c-.8-.8-2.34-.9-3.5-.92v5.3c2.9-.07 4.1-.84 4.1-2.7zm-17.82 14.97h-6.73V16.25h-5.14v-5.9h17v5.9h-5.14zm-20.45-22.54h6.76V32.9h-6.76V13.47zM25.7818 0a4.24 4.24 0 0 1 2.98 7.2559 4.24 4.24 0 0 1-7.22-3.0659c.0274-2.3221 1.9177-4.1902 4.24-4.19zm-5.44 13.47l-3.56 5.72a5.89 5.89 0 0 0-5-2.73 5 5 0 0 0-4.88 5.18 5 5 0 0 0 4.92 5.14 5.89 5.89 0 0 0 5-2.73l3.56 5.76c-3.329 3.4976-8.4508 4.6187-12.9365 2.8315S.0119 26.5185 0 21.6899s2.9146-9.179 7.3916-10.9881 9.6041-.7131 12.9502 2.7682z"/><path d="M77.6619 32.9h-6.76V10.36h6.76z"/></svg>